<?xml version="1.0" encoding="UTF-8" standalone="no"?>
<!DOCTYPE svg PUBLIC "-//W3C//DTD SVG 1.1//EN"
 "http://www.w3.org/Graphics/SVG/1.1/DTD/svg11.dtd">
<!-- Generated by graphviz version 2.42.3 (20191010.1750)
 -->
<!-- Title: %3 Pages: 1 -->
<svg width="703pt" height="109pt"
 viewBox="0.00 0.00 703.49 108.66" xmlns="http://www.w3.org/2000/svg" xmlns:xlink="http://www.w3.org/1999/xlink">
<g id="graph0" class="graph" transform="scale(1 1) rotate(0) translate(4 104.66)">
<title>%3</title>
<polygon fill="white" stroke="transparent" points="-4,4 -4,-104.66 699.49,-104.66 699.49,4 -4,4"/>
<!-- ACG -->
<g id="node1" class="node">
<title>ACG</title>
<ellipse fill="none" stroke="black" cx="28.78" cy="-41" rx="28.56" ry="18"/>
<text text-anchor="middle" x="28.78" y="-36.8" font-family="Times,serif" font-size="14.00">ACG</text>
</g>
<!-- CGA -->
<g id="node2" class="node">
<title>CGA</title>
<ellipse fill="none" stroke="black" cx="122.33" cy="-64" rx="28.56" ry="18"/>
<text text-anchor="middle" x="122.33" y="-59.8" font-family="Times,serif" font-size="14.00">CGA</text>
</g>
<!-- ACG&#45;&gt;CGA -->
<g id="edge1" class="edge">
<title>ACG&#45;&gt;CGA</title>
<path fill="none" stroke="black" d="M55.77,-47.53C64.95,-49.84 75.45,-52.47 85.31,-54.95"/>
<polygon fill="black" stroke="black" points="84.73,-58.41 95.28,-57.45 86.43,-51.62 84.73,-58.41"/>
</g>
<!-- CGT -->
<g id="node3" class="node">
<title>CGT</title>
<ellipse fill="none" stroke="black" cx="487.1" cy="-18" rx="27.59" ry="18"/>
<text text-anchor="middle" x="487.1" y="-13.8" font-family="Times,serif" font-size="14.00">CGT</text>
</g>
<!-- ACG&#45;&gt;CGT -->
<g id="edge2" class="edge">
<title>ACG&#45;&gt;CGT</title>
<path fill="none" stroke="black" d="M56.41,-35.55C92.02,-28.75 157.19,-18 213.41,-18 213.41,-18 213.41,-18 305.72,-18 355.31,-18 412.58,-18 449.04,-18"/>
<polygon fill="black" stroke="black" points="449.2,-21.5 459.2,-18 449.2,-14.5 449.2,-21.5"/>
</g>
<!-- GAT -->
<g id="node4" class="node">
<title>GAT</title>
<ellipse fill="none" stroke="black" cx="214.41" cy="-64" rx="27.1" ry="18"/>
<text text-anchor="middle" x="214.41" y="-59.8" font-family="Times,serif" font-size="14.00">GAT</text>
</g>
<!-- CGA&#45;&gt;GAT -->
<g id="edge3" class="edge">
<title>CGA&#45;&gt;GAT</title>
<path fill="none" stroke="black" d="M151.34,-64C159.42,-64 168.36,-64 176.87,-64"/>
<polygon fill="black" stroke="black" points="176.96,-67.5 186.96,-64 176.96,-60.5 176.96,-67.5"/>
</g>
<!-- GTT -->
<g id="node7" class="node">
<title>GTT</title>
<ellipse fill="none" stroke="black" cx="578.19" cy="-18" rx="27.1" ry="18"/>
<text text-anchor="middle" x="578.19" y="-13.8" font-family="Times,serif" font-size="14.00">GTT</text>
</g>
<!-- CGT&#45;&gt;GTT -->
<g id="edge8" class="edge">
<title>CGT&#45;&gt;GTT</title>
<path fill="none" stroke="black" d="M515.31,-18C523.32,-18 532.2,-18 540.69,-18"/>
<polygon fill="black" stroke="black" points="540.75,-21.5 550.75,-18 540.75,-14.5 540.75,-21.5"/>
</g>
<!-- ATC -->
<g id="node5" class="node">
<title>ATC</title>
<ellipse fill="none" stroke="black" cx="304.72" cy="-64" rx="27" ry="18"/>
<text text-anchor="middle" x="304.72" y="-59.8" font-family="Times,serif" font-size="14.00">ATC</text>
</g>
<!-- GAT&#45;&gt;ATC -->
<g id="edge4" class="edge">
<title>GAT&#45;&gt;ATC</title>
<path fill="none" stroke="black" d="M241.91,-64C249.93,-64 258.87,-64 267.42,-64"/>
<polygon fill="black" stroke="black" points="267.55,-67.5 277.55,-64 267.55,-60.5 267.55,-67.5"/>
</g>
<!-- TCG -->
<g id="node6" class="node">
<title>TCG</title>
<ellipse fill="none" stroke="black" cx="395.51" cy="-64" rx="27.59" ry="18"/>
<text text-anchor="middle" x="395.51" y="-59.8" font-family="Times,serif" font-size="14.00">TCG</text>
</g>
<!-- ATC&#45;&gt;TCG -->
<g id="edge5" class="edge">
<title>ATC&#45;&gt;TCG</title>
<path fill="none" stroke="black" d="M331.88,-64C339.88,-64 348.84,-64 357.42,-64"/>
<polygon fill="black" stroke="black" points="357.61,-67.5 367.61,-64 357.61,-60.5 357.61,-67.5"/>
</g>
<!-- TCG&#45;&gt;CGA -->
<g id="edge6" class="edge">
<title>TCG&#45;&gt;CGA</title>
<path fill="none" stroke="black" d="M373.71,-75.48C361.8,-81.4 346.36,-87.98 331.72,-91 268.77,-103.96 250.1,-103.78 187.11,-91 175.95,-88.73 164.32,-84.45 154.09,-79.95"/>
<polygon fill="black" stroke="black" points="155.32,-76.66 144.77,-75.63 152.37,-83.01 155.32,-76.66"/>
</g>
<!-- TCG&#45;&gt;CGT -->
<g id="edge7" class="edge">
<title>TCG&#45;&gt;CGT</title>
<path fill="none" stroke="black" d="M417.74,-53.1C429.04,-47.3 443.13,-40.06 455.58,-33.67"/>
<polygon fill="black" stroke="black" points="457.41,-36.66 464.71,-28.98 454.21,-30.44 457.41,-36.66"/>
</g>
<!-- TTC -->
<g id="node8" class="node">
<title>TTC</title>
<ellipse fill="none" stroke="black" cx="668.49" cy="-41" rx="27" ry="18"/>
<text text-anchor="middle" x="668.49" y="-36.8" font-family="Times,serif" font-size="14.00">TTC</text>
</g>
<!-- GTT&#45;&gt;TTC -->
<g id="edge9" class="edge">
<title>GTT&#45;&gt;TTC</title>
<path fill="none" stroke="black" d="M603.78,-24.41C612.87,-26.77 623.35,-29.5 633.14,-32.05"/>
<polygon fill="black" stroke="black" points="632.46,-35.49 643.02,-34.63 634.23,-28.72 632.46,-35.49"/>
</g>
<!-- TTC&#45;&gt;TCG -->
<g id="edge10" class="edge">
<title>TTC&#45;&gt;TCG</title>
<path fill="none" stroke="black" d="M641.42,-43.21C593.05,-47.32 489.3,-56.12 433.62,-60.85"/>
<polygon fill="black" stroke="black" points="433.15,-57.38 423.48,-61.71 433.74,-64.35 433.15,-57.38"/>
</g>
</g>
</svg>
